<svg xmlns:dc="http://purl.org/dc/elements/1.1/" xmlns:cc="http://creativecommons.org/ns#" xmlns:rdf="http://www.w3.org/1999/02/22-rdf-syntax-ns#" xmlns:svg="http://www.w3.org/2000/svg" xmlns="http://www.w3.org/2000/svg" viewBox="0 0 6047.2402 1098.2427" height="1098.2427" width="6047.2402" xml:space="preserve" id="svg2" version="1.1"><metadata id="metadata8" fill="#ffffff"><rdf:RDF fill="#ffffff"><cc:Work rdf:about="" fill="#ffffff"><dc:format fill="#ffffff">image/svg+xml</dc:format><dc:type rdf:resource="http://purl.org/dc/dcmitype/StillImage" fill="#ffffff"/></cc:Work></rdf:RDF></metadata><defs id="defs6" fill="#ffffff"><clipPath id="clipPath18" clipPathUnits="userSpaceOnUse" fill="#ffffff"><path id="path16" d="M 0,823.682 H 4535.433 V 0 H 0 Z" fill="#ffffff"/></clipPath></defs><g transform="matrix(1.3333333,0,0,-1.3333333,0,1098.2427)" id="g10"><g id="g12"><g clip-path="url(#clipPath18)" id="g14"><g transform="translate(461.6191,158.2975)" id="g20"><path id="path22" style="fill:#ffffff;fill-opacity:1;fill-rule:nonzero;stroke:none" d="m 0,0 c -29.337,-34.365 -77.947,-37.715 -123.211,-37.715 -0.192,0 -0.385,0 -0.577,0 -28.089,0.073 -50.548,23.5 -50.548,51.59 v 202.746 c 0,28.492 23.097,51.589 51.588,51.589 h 42.285 C -11.733,268.21 31.01,217.923 31.01,123.211 31.01,62.025 20.954,25.143 0,0 m -174.336,489.849 c 0,28.455 23.063,51.559 51.518,51.596 1.832,0.003 3.657,0.003 5.474,0.003 92.201,0 124.888,-44.421 124.888,-133.267 0,-90.518 -34.365,-128.238 -102.256,-128.238 h -28.036 c -28.491,0 -51.588,23.097 -51.588,51.588 z M -48.614,274.915 v 1.678 C 41.07,287.487 99.74,344.484 99.74,410.698 c 0,82.974 -72.919,142.487 -198.641,142.487 -35.204,0 -77.952,-2.516 -123.211,-2.516 h -129.077 v -11.733 h 41.447 c 28.491,0 51.588,-23.097 51.588,-51.589 V 17.224 c 0,-28.492 -23.097,-51.589 -51.588,-51.589 h -41.447 v -11.733 h 153.382 c 27.66,0 67.052,-3.35 94.712,-3.35 145.843,0 230.495,65.375 230.495,171.82 0,82.979 -73.758,142.488 -176.014,152.543"/></g><g transform="translate(1069.6212,139.4596)" id="g24"><path id="path26" style="fill:#ffffff;fill-opacity:1;fill-rule:nonzero;stroke:none" d="m 0,0 c -121.565,-56.623 -212.42,-6.478 -303.723,189.541 -91.661,196.784 -63.988,302.138 49.217,354.868 C -132.942,601.033 -37.08,542.127 50.688,353.698 141.638,158.438 121.564,56.623 0,0 M 137.706,395.154 C 64.801,551.672 -119.661,620.162 -258.7,555.399 -389.379,494.53 -463.646,304.601 -391.095,148.844 -320.67,-2.351 -143.964,-80.001 4.954,-10.636 148.55,56.25 206.36,247.761 137.706,395.154"/></g><g transform="translate(2236.7334,428.1849)" id="g28"><path id="path30" style="fill:#ffffff;fill-opacity:1;fill-rule:nonzero;stroke:none" d="m 0,0 c -31.01,15.088 -63.698,23.466 -101.417,35.204 -29.333,9.217 -67.887,20.115 -104.768,35.199 -45.259,18.443 -77.108,47.775 -77.108,98.906 0,76.269 65.375,114.828 138.294,114.828 81.301,0 141.649,-56.997 158.409,-155.06 H 23.471 V 280.782 H 11.738 c -7.544,-14.25 -9.222,-17.6 -25.149,-17.6 -29.332,0 -56.153,32.688 -131.588,32.688 -106.445,0 -183.558,-72.919 -183.558,-176.014 0,-88.846 62.025,-122.372 134.943,-146.677 33.527,-10.894 67.892,-20.116 99.74,-30.176 62.025,-20.116 111.478,-54.481 111.478,-124.883 0,-60.348 -34.365,-134.944 -150.87,-134.944 -86.33,0 -165.115,18.438 -201.158,181.042 h -9.216 v -180.203 h 12.571 c 5.867,13.41 9.217,18.438 25.144,18.438 40.231,0 62.025,-31.01 172.659,-31.01 134.105,0 215.411,91.357 215.411,197.802 C 82.145,-62.025 46.098,-22.632 0,0"/></g><g transform="translate(2572.5784,405.5529)" id="g32"><path id="path34" style="fill:#ffffff;fill-opacity:1;fill-rule:nonzero;stroke:none" d="M 0,0 C -6.573,0 -13.925,0.292 -21.657,0.844 -47.645,2.697 -67.891,24.177 -67.891,50.23 v 194.488 c 0,27.314 22.134,49.46 49.448,49.474 120.694,0 150.032,-46.098 150.032,-147.515 C 131.589,49.453 82.979,0 0,0 m 5.032,305.93 c -27.659,0 -79.633,-2.516 -87.173,-2.516 h -119.036 v -11.733 c 27.321,0 49.468,-22.147 49.468,-49.468 v -468.501 c 0,-30.559 -24.773,-55.332 -55.333,-55.332 h -37.702 v -11.733 H 25.144 v 11.733 H -12.56 c -30.558,0 -55.331,24.773 -55.331,55.332 v 165.569 c 0,28.343 23.807,51.171 52.094,49.395 4.184,-0.262 8.096,-0.409 11.603,-0.409 128.243,0 232.172,62.863 232.172,158.41 0,93.039 -90.518,159.253 -222.946,159.253"/></g><g transform="translate(3331.1184,438.2404)" id="g36"><path id="path38" style="fill:#ffffff;fill-opacity:1;fill-rule:nonzero;stroke:none" d="m 0,0 h -24.292 c -30.559,0 -55.332,24.773 -55.332,55.333 l -0.001,150.82 c 0,30.462 24.664,55.124 55.126,55.336 1.518,0.01 2.986,0.016 4.388,0.016 93.864,0 122.362,-51.126 122.362,-131.589 C 102.251,37.72 67.891,0 0,0 m 451.258,-258.975 v 470.936 c 0,25.975 21.057,47.032 47.032,47.032 h -0.515 v 11.733 H 320.893 v -11.733 c 25.975,0 46.547,-21.057 46.547,-47.032 v -470.936 c 0,-30.559 -24.773,-55.333 -55.333,-55.333 h -40.542 c -33.531,0 -51.126,26.821 -55.32,83.818 -6.71,92.196 -4.193,134.944 -36.037,170.143 -23.476,25.987 -62.03,47.775 -133.276,56.997 v 1.677 c 92.205,10.894 147.525,64.536 147.525,134.105 0,57.831 -41.07,103.929 -88.851,124.884 -24.304,10.894 -58.674,15.926 -121.533,15.926 -31.005,0 -67.891,-2.516 -77.108,-2.516 h -125.74 v -11.733 c 30.56,0 55.333,-24.773 55.333,-55.332 v -462.636 c 0,-30.559 -24.773,-55.333 -55.333,-55.333 h -18.182 -19.52 -37.454 c -30.56,0 -55.333,24.774 -55.333,55.333 v 471.451 c 0,25.691 20.827,46.517 46.517,46.517 v 11.733 h -176.852 v -11.733 c 25.69,0 46.517,-20.826 46.517,-46.517 v -471.451 c 0,-30.559 -24.773,-55.333 -55.332,-55.333 h -37.702 v -11.733 h 269.639 19.52 250.367 v 11.733 h -37.702 c -30.559,0 -55.332,24.774 -55.332,55.333 v 191.91 c 0,30.559 24.773,55.332 55.332,55.332 H 6.71 c 46.093,0 72.075,-12.572 90.519,-35.204 17.594,-21.788 26.821,-54.476 29.337,-126.561 4.857,-124.836 39.519,-150.884 115.346,-152.46 v -0.083 h 302.381 v 11.733 h -37.702 c -30.56,0 -55.333,24.774 -55.333,55.333"/></g><g transform="translate(3915.4043,708.9666)" id="g40"><path id="path42" style="fill:#ffffff;fill-opacity:1;fill-rule:nonzero;stroke:none" d="m 0,0 v -153.382 h 9.217 c 29.337,98.901 71.246,141.649 151.709,141.649 h 7.698 c 24.447,0 44.266,-19.819 44.266,-44.266 v -473.702 c 0,-30.559 -24.773,-55.333 -55.332,-55.333 h -37.702 v -11.733 h 269.887 v 11.733 h -37.702 c -30.56,0 -55.333,24.774 -55.333,55.333 v 473.702 c 0,24.447 19.819,44.266 44.266,44.266 h 6.86 c 72.076,0 120.694,-31.853 152.539,-141.649 h 9.226 l 0,153.382 z"/></g><g transform="translate(1485.347,438.2404)" id="g44"><path id="path46" style="fill:#ffffff;fill-opacity:1;fill-rule:nonzero;stroke:none" d="m 0,0 h -24.292 c -30.559,0 -55.332,24.697 -55.332,55.256 v 150.961 c 0,30.462 24.664,55.06 55.125,55.272 1.517,0.011 2.982,0.016 4.383,0.016 93.874,0 122.372,-51.126 122.372,-131.589 C 102.256,37.72 67.891,0 0,0 m 330.88,-217.747 c 0,-88.857 -33.006,-100.414 -58.531,-100.775 -0.264,0.005 -0.523,0.025 -0.789,0.025 -33.521,0 -51.126,31.01 -55.315,88.007 -6.705,92.196 -4.193,134.944 -36.042,170.143 -23.466,25.987 -62.025,47.775 -133.266,56.997 v 1.677 c 92.196,10.894 147.515,64.536 147.515,134.105 0,57.831 -41.07,103.929 -88.845,124.884 -24.305,10.894 -58.67,15.926 -121.534,15.926 -31.01,0 -67.886,-2.516 -77.108,-2.516 h -163.442 v -11.733 h 37.702 c 30.56,0 55.333,-24.773 55.333,-55.332 v -462.636 c 0,-30.559 -24.773,-55.333 -55.333,-55.333 h -37.702 v -11.733 H 13.411 v 11.733 h -37.703 c -30.559,0 -55.332,24.774 -55.332,55.333 v 191.91 c 0,30.559 24.773,55.332 55.332,55.332 H 6.705 c 46.098,0 72.081,-12.572 90.519,-35.204 17.604,-21.788 26.821,-54.476 29.337,-126.561 5.028,-129.072 41.909,-158.409 123.211,-158.409 9.156,0 16.621,0.486 24.173,0.79 45.749,3.652 69.135,39.009 69.135,113.37 v 71.908 h -12.2 z"/></g></g></g></g></svg>