<?xml version="1.0" encoding="UTF-8" standalone="no"?>
<svg
   xmlns:dc="http://purl.org/dc/elements/1.1/"
   xmlns:cc="http://creativecommons.org/ns#"
   xmlns:rdf="http://www.w3.org/1999/02/22-rdf-syntax-ns#"
   xmlns:svg="http://www.w3.org/2000/svg"
   xmlns="http://www.w3.org/2000/svg"
   viewBox="0 0 613.33331 106.43573"
   height="106.43573"
   width="613.33331"
   xml:space="preserve"
   id="svg2"
   version="1.1"><metadata
     id="metadata8"><rdf:RDF><cc:Work
         rdf:about=""><dc:format>image/svg+xml</dc:format><dc:type
           rdf:resource="http://purl.org/dc/dcmitype/StillImage" /></cc:Work></rdf:RDF></metadata><defs
     id="defs6"><clipPath
       id="clipPath18"
       clipPathUnits="userSpaceOnUse"><path
         id="path16"
         d="M 0,79.827 H 460 V 0 H 0 Z" /></clipPath></defs><g
     transform="matrix(1.3333333,0,0,-1.3333333,0,106.43573)"
     id="g10"><g
       id="g12"><g
         clip-path="url(#clipPath18)"
         id="g14"><g
           transform="translate(45.2014,14.2265)"
           id="g20"><path
             id="path22"
             style="fill:#64141e;fill-opacity:1;fill-rule:nonzero;stroke:none"
             d="m 0,0 c -3.006,-3.521 -7.986,-3.864 -12.624,-3.864 -0.02,0 -0.039,0 -0.059,0 -2.878,0.007 -5.179,2.408 -5.179,5.286 v 20.773 c 0,2.919 2.366,5.285 5.285,5.285 h 4.333 C -1.202,27.48 3.177,22.328 3.177,12.624 3.177,6.355 2.147,2.576 0,0 m -17.862,50.189 c 0,2.916 2.363,5.283 5.278,5.287 0.188,0 0.375,0 0.561,0 9.447,0 12.796,-4.551 12.796,-13.654 0,-9.275 -3.521,-13.139 -10.477,-13.139 h -2.873 c -2.919,0 -5.285,2.366 -5.285,5.285 z M -4.981,28.167 v 0.172 c 9.189,1.117 15.2,6.956 15.2,13.741 0,8.501 -7.471,14.599 -20.352,14.599 -3.607,0 -7.987,-0.258 -12.624,-0.258 h -13.225 v -1.202 h 4.246 c 2.919,0 5.286,-2.367 5.286,-5.286 V 1.765 c 0,-2.919 -2.367,-5.286 -5.286,-5.286 h -4.246 v -1.202 h 15.715 c 2.834,0 6.87,-0.343 9.704,-0.343 14.943,0 23.616,6.698 23.616,17.604 0,8.502 -7.557,14.599 -18.034,15.629" /></g><g
           transform="translate(107.4965,12.2964)"
           id="g24"><path
             id="path26"
             style="fill:#64141e;fill-opacity:1;fill-rule:nonzero;stroke:none"
             d="m 0,0 c -12.455,-5.802 -21.764,-0.664 -31.119,19.42 -9.392,20.162 -6.556,30.957 5.043,36.36 C -13.621,61.581 -3.799,55.546 5.193,36.239 14.512,16.233 12.455,5.802 0,0 M 14.109,40.487 C 6.639,56.524 -12.26,63.541 -26.506,56.906 -39.895,50.669 -47.505,31.209 -40.071,15.25 -32.855,-0.241 -14.75,-8.197 0.508,-1.09 15.22,5.763 21.143,25.385 14.109,40.487" /></g><g
           transform="translate(227.0775,41.8788)"
           id="g28"><path
             id="path30"
             style="fill:#64141e;fill-opacity:1;fill-rule:nonzero;stroke:none"
             d="m 0,0 c -3.177,1.546 -6.526,2.404 -10.391,3.607 -3.005,0.944 -6.956,2.061 -10.734,3.606 -4.638,1.89 -7.901,4.895 -7.901,10.134 0,7.815 6.698,11.765 14.17,11.765 8.33,0 14.513,-5.84 16.23,-15.887 H 2.405 V 28.769 H 1.203 c -0.773,-1.46 -0.945,-1.804 -2.577,-1.804 -3.005,0 -5.753,3.349 -13.482,3.349 -10.907,0 -18.808,-7.471 -18.808,-18.034 0,-9.103 6.355,-12.538 13.827,-15.028 3.435,-1.116 6.956,-2.061 10.219,-3.092 6.355,-2.061 11.422,-5.582 11.422,-12.795 0,-6.183 -3.521,-13.826 -15.458,-13.826 -8.846,0 -16.918,1.889 -20.611,18.549 h -0.944 v -18.463 h 1.288 c 0.601,1.374 0.944,1.889 2.576,1.889 4.122,0 6.355,-3.178 17.691,-3.178 13.74,0 22.071,9.361 22.071,20.267 C 8.417,-6.355 4.723,-2.319 0,0" /></g><g
           transform="translate(261.4878,39.56)"
           id="g32"><path
             id="path34"
             style="fill:#64141e;fill-opacity:1;fill-rule:nonzero;stroke:none"
             d="m 0,0 c -0.673,0 -1.427,0.03 -2.219,0.086 -2.663,0.19 -4.737,2.391 -4.737,5.061 v 19.927 c 0,2.798 2.268,5.067 5.066,5.069 12.367,0 15.372,-4.724 15.372,-15.115 C 13.482,5.067 8.502,0 0,0 m 0.516,31.345 c -2.834,0 -8.16,-0.258 -8.932,-0.258 h -12.196 v -1.202 c 2.799,0 5.068,-2.269 5.068,-5.068 v -48.002 c 0,-3.131 -2.538,-5.669 -5.669,-5.669 h -3.863 v -1.203 H 2.576 v 1.203 h -3.863 c -3.131,0 -5.669,2.538 -5.669,5.669 v 16.964 c 0,2.904 2.439,5.243 5.337,5.061 0.429,-0.027 0.83,-0.042 1.189,-0.042 13.14,0 23.788,6.441 23.788,16.23 0,9.533 -9.274,16.317 -22.842,16.317" /></g><g
           transform="translate(339.2069,42.9091)"
           id="g36"><path
             id="path38"
             style="fill:#64141e;fill-opacity:1;fill-rule:nonzero;stroke:none"
             d="M 0,0 H -2.489 C -5.62,0 -8.158,2.538 -8.158,5.669 v 15.453 c 0,3.121 2.527,5.648 5.648,5.67 0.155,10e-4 0.306,10e-4 0.449,10e-4 9.618,0 12.538,-5.238 12.538,-13.482 C 10.477,3.865 6.956,0 0,0 m 46.235,-26.534 v 48.251 c 0,2.662 2.158,4.819 4.819,4.819 h -0.053 v 1.202 H 32.878 v -1.202 c 2.662,0 4.769,-2.157 4.769,-4.819 v -48.251 c 0,-3.131 -2.538,-5.67 -5.669,-5.67 h -4.154 c -3.435,0 -5.238,2.748 -5.668,8.588 -0.687,9.447 -0.429,13.826 -3.692,17.433 -2.405,2.662 -6.356,4.895 -13.655,5.84 v 0.172 c 9.447,1.116 15.115,6.612 15.115,13.74 0,5.925 -4.208,10.648 -9.104,12.795 -2.49,1.116 -6.011,1.632 -12.452,1.632 -3.177,0 -6.956,-0.258 -7.9,-0.258 h -12.883 v -1.202 c 3.131,0 5.669,-2.538 5.669,-5.669 v -47.401 c 0,-3.131 -2.538,-5.67 -5.669,-5.67 h -1.863 -2 -3.838 c -3.131,0 -5.669,2.539 -5.669,5.67 V 21.77 c 0,2.632 2.134,4.766 4.766,4.766 v 1.202 h -18.12 v -1.202 c 2.632,0 4.766,-2.134 4.766,-4.766 v -48.304 c 0,-3.131 -2.538,-5.67 -5.669,-5.67 h -3.863 v -1.202 h 27.627 2 25.652 v 1.202 h -3.863 c -3.131,0 -5.669,2.539 -5.669,5.67 v 19.663 c 0,3.131 2.538,5.669 5.669,5.669 h 3.176 c 4.723,0 7.385,-1.288 9.275,-3.607 1.803,-2.233 2.748,-5.582 3.006,-12.967 0.497,-12.791 4.049,-15.46 11.818,-15.621 v -0.009 h 30.982 v 1.202 h -3.863 c -3.131,0 -5.67,2.539 -5.67,5.67" /></g><g
           transform="translate(399.0721,70.6474)"
           id="g40"><path
             id="path42"
             style="fill:#64141e;fill-opacity:1;fill-rule:nonzero;stroke:none"
             d="m 0,0 v -15.715 h 0.944 c 3.006,10.133 7.3,14.513 15.544,14.513 h 0.789 c 2.505,0 4.535,-2.031 4.535,-4.536 v -48.535 c 0,-3.131 -2.538,-5.669 -5.669,-5.669 H 12.28 v -1.202 h 27.653 v 1.202 H 36.07 c -3.131,0 -5.67,2.538 -5.67,5.669 v 48.535 c 0,2.505 2.031,4.536 4.536,4.536 h 0.703 c 7.384,0 12.366,-3.264 15.629,-14.513 h 0.945 V 0 Z" /></g><g
           transform="translate(150.0913,42.9091)"
           id="g44"><path
             id="path46"
             style="fill:#64141e;fill-opacity:1;fill-rule:nonzero;stroke:none"
             d="M 0,0 H -2.489 C -5.62,0 -8.158,2.53 -8.158,5.661 v 15.468 c 0,3.121 2.527,5.641 5.648,5.663 0.155,10e-4 0.305,10e-4 0.449,10e-4 9.618,0 12.538,-5.238 12.538,-13.482 C 10.477,3.865 6.956,0 0,0 m 33.902,-22.31 c 0,-9.104 -3.382,-10.288 -5.997,-10.325 -0.027,0 -0.054,0.002 -0.081,0.002 -3.435,0 -5.239,3.177 -5.668,9.017 -0.687,9.447 -0.429,13.826 -3.693,17.433 -2.404,2.662 -6.355,4.895 -13.654,5.84 v 0.172 c 9.446,1.116 15.114,6.612 15.114,13.74 0,5.925 -4.208,10.648 -9.103,12.795 -2.49,1.116 -6.011,1.632 -12.452,1.632 -3.177,0 -6.955,-0.258 -7.9,-0.258 h -16.746 v -1.202 h 3.863 c 3.131,0 5.669,-2.538 5.669,-5.669 v -47.401 c 0,-3.131 -2.538,-5.67 -5.669,-5.67 h -3.863 v -1.202 H 1.374 v 1.202 h -3.863 c -3.131,0 -5.669,2.539 -5.669,5.67 v 19.663 c 0,3.131 2.538,5.669 5.669,5.669 h 3.176 c 4.723,0 7.385,-1.288 9.274,-3.607 1.804,-2.233 2.748,-5.582 3.006,-12.967 0.515,-13.225 4.294,-16.231 12.624,-16.231 0.938,0 1.703,0.05 2.477,0.081 4.687,0.374 7.084,3.997 7.084,11.616 v 7.368 h -1.25 z" /></g></g></g></g></svg>